{"title":"Quadrophonia - Cozmic Jam 1991 ( EAC FLAC CUE Log Scans )","uid":4939526,"size":329265461,"categoryP":"audio","categoryS":"flac","magnet":"?xt=urn:btih:42747c6ddfe52f424962bf5345d5a8c710dd6bde&amp;dn=Quadrophonia+-+Cozmic+Jam+1991+%28+EAC+FLAC+CUE+Log+Scans+%29&amp;tr=udp%3A%2F%2Ftracker.openbittorrent.com%3A80&amp;tr=udp%3A%2F%2Fopen.demonii.com%3A1337&amp;tr=udp%3A%2F%2Ftracker.coppersurfer.tk%3A6969&amp;tr=udp%3A%2F%2Fexodus.desync.com%3A6969","seeders":0,"leechers":1,"uploader":"foteberg","files":25,"time":1244396591,"description":"EAC FLAC CUE LOG SCANS (Included)\n\n\n\n\n\nQuadrophonia - Cozmic Jam\n\n\n\n\t\nLabel:\tARS Productions\nCatalog#:\t656655-2\nFormat:\tCD, Album\nCountry:\tBelgium\nReleased:\t1991\nGenre:\tElectronic\nStyle:\tBreakbeat, House\nCredits:\tArtwork By [Cover] - Image-Building\nMixed By - Lucien Foort , Olivier Abbeloos , Patrick De Meyer\nProducer - Quadrophonia\nWritten-By - Lucien Foort , Olivier Abbeloos , Patrick De Meyer (tracks: 7)\nNotes:\t(P)+(C) 1991 ARS Productions - ADM/P&amp;M Publishing\nCatalog# is mentioned on release as &quot;656 655-2&quot;.\n\n\n\n\n\n\n\nTracklisting:\n\n\n1. Quadrophonia (6:44)\n\n2. The Man With The Masterplan (4:06)\n\n3. Djoum 1000 (0:12)\n\n4. Hardhead (3:12)\n\n5. Cozmic Jam (0:20)\n\n6. Find The Time (Part I) (4:20)\n\n7. Schizofrenia - The Worst Day Of My Life (3:50)\n\n8. The Wave Of The Future (5:07)\n\n9. Original Statement (4:42)\n\n10. Cozm' And Ovo (0:17)\n\n11. Quadrophonia (Remix) (3:47)\n\n12. The 9 Lives Of Pitou (0:17)\n\n13. Find The Time (Part II) (4:20)\n\n14. Theme Of Quadrophonia (3:35)\n\n\n\n\n\n\n\n\n\nEAC LOG:\n\n\n\n\nExact Audio Copy V0.99 prebeta 4 from 23. January 2008\n\nEAC extraction logfile from 7. June 2009, 13:09\n\nQuadrophonia / Cozmic Jam\n\nUsed drive  : HL-DT-STDVD-RAM GSA-H50L   Adapter: 0  ID: 0\n\nRead mode               : Secure\nUtilize accurate stream : Yes\nDefeat audio cache      : No\nMake use of C2 pointers : No\n\nRead offset correction                      : 102\nOverread into Lead-In and Lead-Out          : No\nFill up missing offset samples with silence : Yes\nDelete leading and trailing silent blocks   : No\nNull samples used in CRC calculations       : Yes\nUsed interface                              : Native Win32 interface for Win NT &amp; 2000\nGap handling                                : Not detected, thus appended to previous track\n\nUsed output format              : User Defined Encoder\nSelected bitrate                : 128 kBit/s\nQuality                         : High\nAdd ID3 tag                     : No\nCommand line compressor         : C:Program FilesExact Audio CopyFlacflac.exe\nAdditional command line options : -T &quot;artist=%a&quot; -T &quot;title=%t&quot; -T &quot;album=%g&quot; -T &quot;date=%y&quot; -T &quot;tracknumber=%n&quot; -T &quot;genre=%m&quot; -8 %s\n\n\nTOC of the extracted CD\n\n     Track |   Start  |  Length  | Start sector | End sector \n    ---------------------------------------------------------\n        1  |  0:00.33 |  6:46.22 |        33    |    30504   \n        2  |  6:46.55 |  4:05.05 |     30505    |    48884   \n        3  | 10:51.60 |  0:18.28 |     48885    |    50262   \n        4  | 11:10.13 |  3:12.12 |     50263    |    64674   \n        5  | 14:22.25 |  0:16.60 |     64675    |    65934   \n        6  | 14:39.10 |  4:20.58 |     65935    |    85492   \n        7  | 18:59.68 |  3:48.35 |     85493    |   102627   \n        8  | 22:48.28 |  5:03.60 |    102628    |   125412   \n        9  | 27:52.13 |  4:44.10 |    125413    |   146722   \n       10  | 32:36.23 |  0:16.72 |    146723    |   147994   \n       11  | 32:53.20 |  3:48.18 |    147995    |   165112   \n       12  | 36:41.38 |  0:16.47 |    165113    |   166359   \n       13  | 36:58.10 |  4:21.68 |    166360    |   186002   \n       14  | 41:20.03 |  3:34.05 |    186003    |   202057   \n\n\nTrack  1\n\n     Filename F:uTorrentQuadrophonia - Cozmic Jam 01 Quadrophonia - Quadrophonia.wav\n\n     Peak level 100.0 %\n     Track quality 99.9 %\n     Test CRC 32365C0D\n     Copy CRC 32365C0D\n     Accurately ripped (confidence 2)  [6B8C3670]\n     Copy OK\n\nTrack  2\n\n     Filename F:uTorrentQuadrophonia - Cozmic Jam 02 Quadrophonia - The Man with the Masterplan.wav\n\n     Peak level 95.2 %\n     Track quality 99.9 %\n     Test CRC 299B8898\n     Copy CRC 299B8898\n     Accurately ripped (confidence 2)  [3D4AF076]\n     Copy OK\n\nTrack  3\n\n     Filename F:uTorrentQuadrophonia - Cozmic Jam 03 Quadrophonia - DJOUM 1000.wav\n\n     Peak level 16.9 %\n     Track quality 100.0 %\n     Test CRC D0CB051F\n     Copy CRC D0CB051F\n     Accurately ripped (confidence 2)  [9D2F14D5]\n     Copy OK\n\nTrack  4\n\n     Filename F:uTorrentQuadrophonia - Cozmic Jam 04 Quadrophonia - Hardhead.wav\n\n     Peak level 100.0 %\n     Track quality 100.0 %\n     Test CRC FB94DB44\n     Copy CRC FB94DB44\n     Accurately ripped (confidence 2)  [F7145CCC]\n     Copy OK\n\nTrack  5\n\n     Filename F:uTorrentQuadrophonia - Cozmic Jam 05 Quadrophonia - Cozmic Jam.wav\n\n     Peak level 64.6 %\n     Track quality 100.0 %\n     Test CRC 8F3B15E4\n     Copy CRC 8F3B15E4\n     Accurately ripped (confidence 2)  [0C706272]\n     Copy OK\n\nTrack  6\n\n     Filename F:uTorrentQuadrophonia - Cozmic Jam 06 Quadrophonia - Find the Time (Part I).wav\n\n     Peak level 100.0 %\n     Track quality 100.0 %\n     Test CRC 4DAA7DE6\n     Copy CRC 4DAA7DE6\n     Accurately ripped (confidence 2)  [93F72BCC]\n     Copy OK\n\nTrack  7\n\n     Filename F:uTorrentQuadrophonia - Cozmic Jam 07 Quadrophonia - Schizofrenia - the Worst Day of My Life.wav\n\n     Peak level 100.0 %\n     Track quality 99.9 %\n     Test CRC 2622AB0C\n     Copy CRC 2622AB0C\n     Accurately ripped (confidence 2)  [1BB403A2]\n     Copy OK\n\nTrack  8\n\n     Filename F:uTorrentQuadrophonia - Cozmic Jam 08 Quadrophonia - The Wave of the Future.wav\n\n     Peak level 94.9 %\n     Track quality 100.0 %\n     Test CRC AE66FA5F\n     Copy CRC AE66FA5F\n     Accurately ripped (confidence 2)  [3283E698]\n     Copy OK\n\nTrack  9\n\n     Filename F:uTorrentQuadrophonia - Cozmic Jam 09 Quadrophonia - Original Statement.wav\n\n     Peak level 100.0 %\n     Track quality 100.0 %\n     Test CRC 219C9935\n     Copy CRC 219C9935\n     Accurately ripped (confidence 2)  [E47A0F89]\n     Copy OK\n\nTrack 10\n\n     Filename F:uTorrentQuadrophonia - Cozmic Jam 10 Quadrophonia - Cozm' and Ovo.wav\n\n     Peak level 65.9 %\n     Track quality 100.0 %\n     Test CRC 5B693349\n     Copy CRC 5B693349\n     Accurately ripped (confidence 2)  [13531112]\n     Copy OK\n\nTrack 11\n\n     Filename F:uTorrentQuadrophonia - Cozmic Jam 11 Quadrophonia - Quadrophonia (Remix).wav\n\n     Peak level 94.0 %\n     Track quality 100.0 %\n     Test CRC 46D1C695\n     Copy CRC 46D1C695\n     Accurately ripped (confidence 2)  [8B6BA8F8]\n     Copy OK\n\nTrack 12\n\n     Filename F:uTorrentQuadrophonia - Cozmic Jam 12 Quadrophonia - The 9 Lives of Pitou.wav\n\n     Peak level 62.3 %\n     Track quality 100.0 %\n     Test CRC B298706B\n     Copy CRC B298706B\n     Accurately ripped (confidence 2)  [63B15804]\n     Copy OK\n\nTrack 13\n\n     Filename F:uTorrentQuadrophonia - Cozmic Jam 13 Quadrophonia - Find the Time (Part II).wav\n\n     Peak level 75.7 %\n     Track quality 100.0 %\n     Test CRC 6A9442C2\n     Copy CRC 6A9442C2\n     Accurately ripped (confidence 2)  [2034B33F]\n     Copy OK\n\nTrack 14\n\n     Filename F:uTorrentQuadrophonia - Cozmic Jam 14 Quadrophonia - Theme of Quadrophonia.wav\n\n     Peak level 98.2 %\n     Track quality 100.0 %\n     Test CRC 22017A4F\n     Copy CRC 22017A4F\n     Accurately ripped (confidence 2)  [91ED991C]\n     Copy OK\n\n\nAll tracks accurately ripped\n\nNo errors occurred\n\nEnd of status report\n\n\n\n\nThanks for Seeding !!!\n\n\n\n\n","torrent":{"xt":"urn:btih:42747c6ddfe52f424962bf5345d5a8c710dd6bde","amp;dn":"Quadrophonia+-+Cozmic+Jam+1991+%28+EAC+FLAC+CUE+Log+Scans+%29","amp;tr":["udp%3A%2F%2Ftracker.openbittorrent.com%3A80","udp%3A%2F%2Fopen.demonii.com%3A1337","udp%3A%2F%2Ftracker.coppersurfer.tk%3A6969","udp%3A%2F%2Fexodus.desync.com%3A6969"],"infoHash":"42747c6ddfe52f424962bf5345d5a8c710dd6bde","infoHashBuffer":{"type":"Buffer","data":[66,116,124,109,223,229,47,66,73,98,191,83,69,213,168,199,16,221,107,222]},"announce":[],"urlList":[]}}